<?xml version="1.0" encoding="UTF-8"?><!DOCTYPE svg PUBLIC "-//W3C//DTD SVG 1.1//EN" "http://www.w3.org/Graphics/SVG/1.1/DTD/svg11.dtd"><svg xmlns="http://www.w3.org/2000/svg"><symbol id="Group 260" viewBox="0 0 16 16"><path d="M8.01 8.531l-4.25 4.25a.747.747 0 0 1-1.059 0l-.706-.706a.747.747 0 0 1 0-1.06L5.005 8 1.991 4.987a.747.747 0 0 1 0-1.059l.706-.71a.747.747 0 0 1 1.06 0l4.25 4.25a.748.748 0 0 1 .003 1.063zm6-1.062l-4.25-4.25a.747.747 0 0 0-1.059 0l-.706.706a.747.747 0 0 0 0 1.06L11.005 8l-3.013 3.012a.747.747 0 0 0 0 1.06l.706.71a.747.747 0 0 0 1.06 0l4.25-4.25a.748.748 0 0 0 .003-1.063z"/></symbol></svg>