<svg width="64" height="64" viewBox="0 0 64 64" fill="none" xmlns="http://www.w3.org/2000/svg">
<path d="M0 64L4.41375 48C1.54488 43.0345 0 37.5173 0 31.7792C0 14.3449 14.3449 0 31.8896 0C49.4344 0 64 14.3449 64 31.7792C64 49.2136 49.4345 64 31.8896 64C26.3724 64 21.0759 62.2345 16.331 59.5863L0 64Z" fill="#EDEDED"/>
<path d="M17.2136 53.8482L18.2067 54.4C22.2895 56.9379 27.0343 58.4827 31.9998 58.4827C46.455 58.4827 58.4826 46.4551 58.4826 31.7792C58.4826 17.1033 46.455 5.51721 31.8895 5.51721C17.324 5.51721 5.51709 17.2137 5.51709 31.7792C5.51709 36.8551 6.95159 41.8206 9.59984 46.0137L10.262 47.0068L7.72409 56.2758L17.2136 53.8482Z" fill="#55CD6C"/>
<path d="M23.3933 16.9931L21.2968 16.8827C20.6346 16.8827 19.9726 17.1034 19.5313 17.5448C18.5381 18.4276 16.883 20.0827 16.4416 22.2897C15.6693 25.6001 16.883 29.5724 19.752 33.5448C22.621 37.5172 28.1383 43.9172 37.8485 46.6758C40.9381 47.5586 43.3658 47.0068 45.352 45.7931C46.8969 44.7999 47.8899 43.2552 48.221 41.5999L48.552 40.0551C48.6624 39.6137 48.4416 39.0619 48.0003 38.8413L41.0485 35.6413C40.6071 35.4206 40.0554 35.5309 39.7244 35.9723L36.9658 39.5033C36.745 39.7241 36.414 39.8343 36.083 39.7241C34.2071 39.0619 27.9175 36.4137 24.4968 29.7931C24.3864 29.4621 24.3864 29.1309 24.6071 28.9103L27.2554 25.9311C27.4761 25.6001 27.5864 25.1587 27.4761 24.8276L24.2761 17.6552C24.1656 17.3241 23.8346 16.9931 23.3933 16.9931Z" fill="#FEFEFE"/>
</svg>
